<?xml version="1.0" standalone="no"?>
<!DOCTYPE svg PUBLIC "-//W3C//DTD SVG 20010904//EN"
 "http://www.w3.org/TR/2001/REC-SVG-20010904/DTD/svg10.dtd">
<svg version="1.0" xmlns="http://www.w3.org/2000/svg"
 width="1835.000000pt" height="1489.000000pt" viewBox="0 0 1835.000000 1489.000000"
 preserveAspectRatio="xMidYMid meet">
<metadata>
Created by potrace 1.11, written by Peter Selinger 2001-2013
</metadata>
<g transform="translate(0.000000,1489.000000) scale(0.100000,-0.100000)"
fill="#000000" stroke="none">
<path d="M1133 14873 l1137 -3 0 -21 c0 -11 -28 -52 -61 -90 l-62 -69 -1076
-3 -1076 -2 1076 -3 1077 -2 66 74 c37 41 66 83 66 95 l0 21 7990 0 7990 0 3
-7407 2 -7408 3 7413 2 7412 -9137 -2 c-5026 -2 -8626 -4 -8000 -5z"/>
<path d="M7490 14415 l0 -145 -30 0 c-16 0 -30 -2 -30 -4 0 -2 11 -34 25 -70
14 -37 25 -69 25 -71 0 -3 -103 -5 -229 -5 -176 0 -231 -3 -239 -13 -11 -13
-14 -224 -13 -989 1 -314 2 -328 20 -338 32 -16 1571 -14 1588 3 17 17 19
1286 3 1318 -10 18 -25 19 -463 20 -249 0 -494 0 -544 -1 -51 -1 -93 3 -93 8
0 4 11 37 25 72 14 35 25 65 25 67 0 2 -13 3 -30 3 l-30 0 0 140 0 140 5270 0
5270 0 0 -1545 0 -1545 -2600 0 -2600 0 0 361 c0 229 -4 367 -10 380 -10 19
-30 19 -843 19 -635 0 -836 -3 -845 -12 -9 -9 -12 -196 -12 -780 0 -422 -4
-768 -8 -768 -5 0 -34 9 -66 20 -31 10 -54 15 -52 11 3 -5 26 -14 51 -21 28
-8 42 -16 35 -20 -9 -6 -9 -9 1 -12 7 -2 -8 -10 -34 -18 -26 -7 -50 -16 -53
-21 -2 -4 21 1 52 11 32 11 61 20 66 20 4 0 8 -344 8 -765 0 -745 0 -765 19
-775 13 -6 163 -10 420 -10 l400 0 -24 -70 c-13 -39 -20 -68 -16 -66 5 3 14
26 21 51 8 28 16 42 20 35 6 -9 9 -9 12 1 2 7 10 -8 18 -34 7 -26 16 -50 21
-53 4 -2 -3 27 -16 66 l-24 70 418 0 c311 0 420 3 429 12 9 9 12 286 12 1185
l0 1173 2605 0 2605 0 0 1555 0 1555 -5280 0 -5280 0 0 -145z m1114 -321 c3
-9 6 -67 6 -130 l0 -114 -800 0 -800 0 0 123 c0 68 3 127 7 130 3 4 360 7 793
7 710 0 788 -2 794 -16z m6 -354 l0 -100 -800 0 -800 0 0 100 0 100 800 0 800
0 0 -100z m-2 -532 l-3 -423 -775 -3 c-426 -1 -785 0 -797 3 l-23 5 0 420 0
420 800 0 800 0 -2 -422z m4216 -1014 c3 -9 6 -67 6 -130 l0 -114 -845 0 -845
0 0 123 c0 68 3 127 7 130 3 4 381 7 839 7 749 0 832 -2 838 -16z m6 -614 l0
-360 -845 0 -845 0 0 360 0 360 845 0 845 0 0 -360z m-2 -1427 l-3 -1058 -820
-3 c-451 -1 -830 0 -843 3 l-22 5 0 1055 0 1055 845 0 845 0 -2 -1057z"/>
<path d="M7690 14340 l0 -60 -31 0 c-21 0 -30 -4 -26 -12 2 -7 15 -41 27 -76
13 -34 25 -61 27 -59 2 3 -7 34 -21 71 l-25 66 54 0 54 0 -25 -62 c-13 -34
-24 -67 -23 -72 0 -9 59 132 59 141 0 2 -13 3 -30 3 -30 0 -30 1 -30 55 l0 55
3410 0 3410 0 0 -775 0 -775 -423 0 c-316 0 -426 -3 -435 -12 -9 -9 -12 -137
-12 -515 0 -486 1 -503 19 -513 30 -16 1913 -14 1929 2 16 16 17 989 2 1019
-10 18 -27 19 -540 19 l-530 0 0 780 0 780 -3420 0 -3420 0 0 -60z m7904
-1526 c3 -9 6 -96 6 -195 l0 -179 -970 0 -970 0 0 188 c0 104 3 192 7 195 3 4
437 7 964 7 863 0 957 -2 963 -16z m6 -484 l0 -100 -970 0 -970 0 0 100 0 100
970 0 970 0 0 -100z m-2 -317 l-3 -208 -945 -3 c-520 -1 -955 0 -967 3 -23 5
-23 6 -23 210 l0 205 970 0 970 0 -2 -207z"/>
<path d="M15293 11975 l2 -30 -708 -2 c-390 -1 -711 -4 -715 -7 -3 -3 377 -5
844 -4 467 1 790 4 717 5 l-132 4 9 25 c6 14 6 23 1 20 -5 -4 -12 0 -14 6 -3
7 -4 0 -4 -17z"/>
<path d="M6840 13681 l0 -31 -2735 0 -2735 0 0 -910 0 -910 -463 0 c-347 0
-466 -3 -475 -12 -9 -9 -12 -283 -12 -1170 0 -1136 0 -1157 19 -1168 29 -15
1899 -14 1917 1 12 9 14 114 14 585 l0 574 26 -10 c31 -12 57 -12 29 0 -13 6
-15 9 -5 9 12 1 12 3 2 10 -9 5 1 12 33 21 25 7 48 16 51 21 2 4 -27 -3 -66
-16 l-70 -24 0 570 c0 374 -4 577 -10 590 -10 18 -26 19 -495 19 l-485 0 0
905 0 905 2730 0 2730 0 0 -45 0 -45 -1535 0 -1535 0 0 -730 0 -730 -518 0
c-390 0 -521 -3 -530 -12 -9 -9 -12 -182 -12 -719 0 -557 -3 -708 -12 -712
-10 -4 -10 -6 0 -6 9 -1 12 -149 12 -706 0 -687 0 -705 19 -715 29 -15 2109
-14 2127 1 12 10 14 246 14 1421 0 952 -3 1416 -10 1429 -10 18 -27 19 -545
19 l-535 0 0 725 0 725 1530 0 1530 0 0 -45 0 -45 -470 0 -470 0 0 -2240 0
-2240 -170 0 c-93 0 -170 4 -170 8 0 5 9 34 20 66 10 31 15 54 11 52 -5 -3
-14 -26 -21 -51 -8 -28 -16 -42 -20 -35 -6 9 -9 9 -12 -1 -2 -7 -10 8 -18 34
-7 26 -16 50 -21 53 -4 2 1 -21 11 -52 11 -32 20 -61 20 -66 0 -4 -73 -8 -163
-8 -113 0 -167 -4 -175 -12 -9 -9 -12 -170 -12 -665 0 -635 1 -653 19 -663 13
-7 259 -10 729 -10 586 0 712 2 721 14 15 18 16 1288 1 1317 -10 18 -24 19
-375 19 l-365 0 0 2235 0 2235 465 0 465 0 0 -30 c0 -16 1 -30 3 -30 9 0 150
59 141 59 -5 1 -38 -10 -72 -23 l-62 -25 0 54 0 54 66 -25 c37 -14 69 -23 71
-20 2 2 -20 12 -49 22 l-53 17 40 18 c22 10 46 18 54 18 8 1 12 4 8 7 -3 3
-31 -4 -62 -15 -31 -12 -61 -19 -66 -16 -12 8 -12 72 1 80 6 4 36 -3 66 -15
31 -11 59 -19 61 -16 2 2 -19 12 -47 21 -28 9 -50 18 -48 20 2 2 26 13 53 24
28 11 45 20 39 20 -5 1 -38 -10 -72 -23 l-62 -25 0 54 0 54 66 -25 c37 -14 68
-23 71 -21 2 2 -25 14 -59 27 -35 12 -69 25 -75 27 -9 4 -13 -5 -13 -26z
m-1986 -1617 c3 -9 6 -67 6 -130 l0 -114 -1070 0 -1070 0 0 123 c0 68 3 127 7
130 3 4 482 7 1064 7 954 0 1057 -2 1063 -16z m-2500 -260 c3 -9 6 -67 6 -130
l0 -114 -965 0 -965 0 0 123 c0 68 3 127 7 130 3 4 435 7 959 7 859 0 952 -2
958 -16z m2506 -354 l0 -360 -1070 0 -1070 0 0 360 0 360 1070 0 1070 0 0
-360z m-2500 -130 l0 -230 -965 0 -965 0 0 230 0 230 965 0 965 0 0 -230z m-2
-1037 l-3 -798 -940 -3 c-517 -1 -950 0 -962 3 l-23 5 0 795 0 795 965 0 965
0 -2 -797z m2500 -130 l-3 -928 -1045 -3 c-575 -1 -1055 0 -1067 3 l-23 5 0
925 0 925 1070 0 1070 0 -2 -927z m1786 -1209 c3 -9 6 -67 6 -130 l0 -114
-730 0 -730 0 0 123 c0 68 3 127 6 130 4 4 330 7 724 7 646 0 718 -2 724 -16z
m6 -419 l0 -165 -730 0 -730 0 0 165 0 165 730 0 730 0 0 -165z m-2 -532 l-3
-358 -705 -3 c-388 -1 -715 0 -727 3 l-23 5 0 355 0 355 730 0 730 0 -2 -357z"/>
<path d="M8697 13483 c-37 -14 -66 -28 -63 -30 2 -2 33 7 70 21 l66 25 0 -54
0 -54 -62 25 c-34 13 -67 24 -72 23 -9 0 132 -59 141 -59 2 0 3 14 3 30 l0 30
220 0 220 0 0 -124 0 -125 -32 -4 -33 -4 33 -1 32 -2 0 -3930 0 -3930 -124 0
c-110 0 -125 2 -129 18 -4 16 -5 16 -6 0 -1 -17 -25 -18 -349 -18 -257 0 -351
-3 -360 -12 -9 -9 -12 -183 -12 -720 0 -389 -4 -708 -8 -708 -5 0 -34 9 -66
20 -31 10 -54 15 -52 11 3 -5 26 -14 51 -21 28 -8 42 -16 35 -20 -9 -6 -9 -9
1 -12 7 -2 -8 -10 -34 -18 -26 -7 -50 -16 -53 -21 -2 -4 21 1 52 11 32 11 61
20 66 20 4 0 8 -322 8 -715 0 -696 0 -715 19 -725 30 -16 1823 -14 1839 2 16
16 18 2859 2 2889 -10 18 -26 19 -440 19 l-430 0 0 4065 0 4065 -225 0 -225 0
0 30 c0 35 3 35 -83 3z m1397 -8189 c3 -9 6 -96 6 -195 l0 -179 -925 0 -925 0
0 188 c0 104 3 192 7 195 3 4 417 7 919 7 822 0 912 -2 918 -16z m4 -1631 l-3
-1248 -900 -3 c-495 -1 -910 0 -922 3 l-23 5 0 1245 0 1245 925 0 925 0 -2
-1247z"/>
<path d="M8876 3605 c-4 -12 -41 -15 -213 -18 -114 -1 159 -2 607 -2 565 0
630 1 213 2 -529 3 -602 5 -597 18 4 8 4 15 1 15 -3 0 -7 -7 -11 -15z"/>
<path d="M7760 12698 c-12 -35 -25 -69 -27 -75 -4 -9 5 -13 25 -13 l30 0 6
-202 c3 -112 8 -400 11 -640 l6 -438 -328 0 c-243 0 -332 -3 -341 -12 -9 -9
-12 -175 -12 -685 0 -654 1 -673 19 -683 30 -15 1363 -14 1379 2 9 9 12 97 12
335 l0 323 26 -10 c31 -12 57 -12 29 0 -13 6 -15 9 -5 9 12 1 12 3 2 10 -9 5
1 12 33 21 25 7 48 16 51 21 2 4 -27 -3 -66 -16 l-70 -24 0 335 c0 212 -4 342
-10 355 -10 18 -25 19 -359 19 l-349 0 -6 368 c-3 202 -8 490 -11 640 l-5 272
30 0 c16 0 30 1 30 3 0 9 -59 150 -59 141 -1 -5 10 -38 23 -72 l25 -62 -54 0
-54 0 25 66 c14 37 23 68 21 71 -2 2 -14 -25 -27 -59z m764 -1394 c3 -9 6 -96
6 -195 l0 -179 -695 0 -695 0 0 188 c0 104 3 192 7 195 3 4 313 7 689 7 613 0
682 -2 688 -16z m4 -866 l-3 -483 -670 -3 c-368 -1 -680 0 -692 3 l-23 5 0
480 0 480 695 0 695 0 -2 -482z"/>
<path d="M1340 9398 c-12 -35 -25 -69 -27 -75 -4 -9 5 -13 26 -13 l31 0 0
-1390 0 -1390 -413 0 c-308 0 -416 -3 -425 -12 -9 -9 -12 -170 -12 -665 0
-635 1 -653 19 -663 30 -15 1693 -14 1709 2 9 9 12 80 12 259 l0 248 70 -24
c39 -13 68 -20 66 -16 -3 5 -27 14 -53 21 -26 8 -41 16 -34 18 10 3 10 6 1 12
-7 4 7 12 35 20 25 7 48 16 51 21 2 4 -27 -3 -66 -16 l-70 -24 0 390 c0 250
-4 397 -10 410 -10 18 -26 19 -440 19 l-430 0 0 1390 0 1390 30 0 c17 0 30 1
30 3 0 9 -59 150 -59 141 -1 -5 10 -38 23 -72 l25 -62 -54 0 -54 0 25 66 c14
37 23 68 21 71 -2 2 -14 -25 -27 -59z m904 -2894 c3 -9 6 -67 6 -130 l0 -114
-860 0 -860 0 0 123 c0 68 3 127 7 130 3 4 388 7 854 7 763 0 847 -2 853 -16z
m6 -354 l0 -100 -860 0 -860 0 0 100 0 100 860 0 860 0 0 -100z m-2 -532 l-3
-423 -835 -3 c-459 -1 -845 0 -857 3 l-23 5 0 420 0 420 860 0 860 0 -2 -422z"/>
<path d="M3740 9138 c-12 -35 -25 -69 -27 -75 -4 -9 5 -13 26 -13 l31 0 0
-125 0 -125 -473 0 c-355 0 -476 -3 -485 -12 -9 -9 -12 -675 -12 -2935 0
-2879 0 -2922 19 -2933 13 -6 193 -10 515 -10 l495 0 -24 -70 c-13 -39 -20
-68 -16 -66 5 3 14 26 21 51 8 28 16 42 20 35 6 -9 9 -9 12 1 2 7 10 -8 18
-34 7 -26 16 -50 21 -53 4 -2 -3 27 -16 66 l-24 70 458 0 c342 0 460 3 469 12
16 16 18 5829 2 5859 -10 18 -26 19 -500 19 l-490 0 0 125 0 125 30 0 c17 0
30 1 30 3 0 9 -59 150 -59 141 -1 -5 10 -38 23 -72 l25 -62 -54 0 -54 0 25 66
c14 37 23 68 21 71 -2 2 -14 -25 -27 -59z m1024 -364 c3 -9 6 -67 6 -130 l0
-114 -980 0 -980 0 0 123 c0 68 3 127 7 130 3 4 442 7 974 7 872 0 967 -2 973
-16z m6 -614 l0 -360 -980 0 -980 0 0 360 0 360 980 0 980 0 0 -360z m-2
-2802 l-3 -2433 -955 -3 c-525 -1 -965 0 -977 3 l-23 5 0 2430 0 2430 980 0
980 0 -2 -2432z"/>
<path d="M6737 8333 c-37 -14 -66 -28 -63 -30 2 -2 33 7 70 21 l66 25 0 -54 0
-54 -62 25 c-34 13 -67 24 -72 23 -9 0 132 -59 141 -59 2 0 3 14 3 30 l0 30
430 0 430 0 0 -720 0 -720 -658 0 c-498 0 -661 -3 -670 -12 -9 -9 -12 -124
-12 -455 0 -427 1 -443 19 -453 30 -16 1743 -14 1759 2 16 16 17 869 2 899
-10 18 -23 19 -220 19 l-210 0 0 725 0 725 -435 0 -435 0 0 30 c0 35 3 35 -83
3z m1377 -1509 c3 -9 6 -67 6 -130 l0 -114 -885 0 -885 0 0 123 c0 68 3 127 7
130 3 4 399 7 879 7 786 0 872 -2 878 -16z m6 -354 l0 -100 -885 0 -885 0 0
100 0 100 885 0 885 0 0 -100z m-2 -322 l-3 -213 -860 -3 c-473 -1 -870 0
-882 3 -23 5 -23 6 -23 215 l0 210 885 0 885 0 -2 -212z"/>
<path d="M11182 8118 c-9 -9 -12 -184 -12 -725 0 -694 0 -713 19 -723 30 -15
1533 -14 1549 2 16 16 17 1409 2 1439 -10 19 -30 19 -778 19 -584 0 -771 -3
-780 -12z m1552 -14 c3 -9 6 -67 6 -130 l0 -114 -780 0 -780 0 0 123 c0 68 3
127 7 130 3 4 352 7 774 7 690 0 767 -2 773 -16z m6 -354 l0 -100 -780 0 -780
0 0 100 0 100 780 0 780 0 0 -100z m-2 -592 l-3 -483 -755 -3 c-415 -1 -765 0
-777 3 l-23 5 0 480 0 480 780 0 780 0 -2 -482z"/>
<path d="M5880 5314 c11 -32 20 -61 20 -66 0 -4 -175 -8 -388 -8 -288 0 -391
-3 -400 -12 -9 -9 -12 -117 -12 -425 0 -397 1 -413 19 -423 30 -16 2793 -14
2809 2 16 16 17 809 2 839 -10 19 -32 19 -1005 19 -547 0 -995 4 -995 8 0 5 9
34 20 66 10 31 15 54 11 52 -5 -3 -14 -26 -21 -51 -8 -28 -16 -42 -20 -35 -6
9 -9 9 -12 -1 -2 -7 -10 8 -18 34 -7 26 -16 50 -21 53 -4 2 1 -21 11 -52z
m2044 -100 c3 -9 6 -96 6 -195 l0 -179 -1410 0 -1410 0 0 188 c0 104 3 192 7
195 3 4 635 7 1404 7 1265 0 1397 -1 1403 -16z m4 -606 l-3 -223 -1385 -3
c-762 -1 -1395 0 -1407 3 -23 5 -23 6 -23 225 l0 220 1410 0 1410 0 -2 -222z"/>
<path d="M1411 4563 c-1 -8 -14 -13 -31 -13 -16 0 -30 -1 -30 -3 0 -2 11 -31
25 -65 14 -34 25 -64 25 -67 0 -3 -208 -5 -463 -5 -347 0 -466 -3 -475 -12 -9
-9 -12 -144 -12 -545 0 -516 1 -533 19 -543 30 -16 1923 -14 1939 2 16 16 17
1049 2 1079 -10 18 -26 19 -495 19 -267 0 -485 2 -485 5 0 3 11 33 25 67 14
34 25 63 25 65 0 2 -13 3 -29 3 -16 0 -32 6 -34 13 -4 10 -6 10 -6 0z m993
-179 c3 -9 6 -90 6 -180 l0 -164 -975 0 -975 0 0 173 c0 96 3 177 7 180 3 4
439 7 969 7 867 0 962 -2 968 -16z m4 -711 l-3 -358 -950 -3 c-522 -1 -960 0
-972 3 l-23 5 0 355 0 355 975 0 975 0 -2 -357z"/>
<path d="M13582 4438 c-8 -8 -12 -62 -12 -175 0 -90 -4 -163 -8 -163 -5 0 -34
9 -66 20 -31 10 -54 15 -52 11 3 -5 26 -14 51 -21 28 -8 42 -16 35 -20 -9 -6
-9 -9 1 -12 7 -2 -8 -10 -34 -18 -26 -7 -50 -16 -53 -21 -2 -4 21 1 52 11 32
11 61 20 66 20 4 0 8 -67 8 -150 0 -137 2 -150 19 -160 30 -15 1473 -14 1489
2 16 16 17 640 2 669 -10 19 -29 19 -748 19 -561 0 -741 -3 -750 -12z m1493
-20 c3 -13 4 -165 3 -338 l-3 -315 -725 -3 c-399 -1 -735 0 -747 3 l-23 5 0
329 c0 180 3 331 7 334 3 4 338 7 744 7 l739 0 5 -22z"/>
<path d="M11132 4408 c-9 -9 -12 -105 -12 -370 0 -343 1 -358 19 -368 30 -15
1413 -14 1429 2 16 16 17 700 2 729 -10 19 -29 19 -718 19 -537 0 -711 -3
-720 -12z m1432 -14 c3 -9 6 -96 6 -195 l0 -179 -720 0 -720 0 0 188 c0 104 3
192 7 195 3 4 325 7 714 7 635 0 707 -2 713 -16z m4 -551 l-3 -168 -695 -3
c-382 -1 -705 0 -717 3 -23 5 -23 8 -23 170 l0 165 720 0 720 0 -2 -167z"/>
<path d="M4372 2168 c-9 -9 -12 -233 -12 -945 0 -911 0 -933 19 -943 30 -16
3433 -14 3449 2 16 16 18 1849 2 1879 -11 19 -40 19 -1728 19 -1323 0 -1721
-3 -1730 -12z m3452 -14 c3 -9 6 -96 6 -195 l0 -179 -1730 0 -1730 0 0 188 c0
104 3 192 7 195 3 4 779 7 1724 7 1556 0 1717 -1 1723 -16z m4 -1126 l-3 -743
-1705 -3 c-938 -1 -1715 0 -1727 3 l-23 5 0 740 0 740 1730 0 1730 0 -2 -742z"/>
<path d="M1292 1913 l-2 -33 -538 0 c-405 0 -541 -3 -550 -12 -9 -9 -12 -131
-12 -490 0 -462 1 -478 19 -488 30 -16 2153 -14 2169 2 16 16 17 939 2 969
-10 18 -27 19 -545 19 l-534 0 -4 33 -4 32 -1 -32z m1082 -59 c3 -9 6 -96 6
-195 l0 -179 -1090 0 -1090 0 0 188 c0 104 3 192 7 195 3 4 491 7 1084 7 973
0 1077 -2 1083 -16z m4 -671 l-3 -288 -1065 -3 c-586 -1 -1075 0 -1087 3 l-23
5 0 285 0 285 1090 0 1090 0 -2 -287z"/>
</g>
</svg>
